<svg version="1.1" id="blackbishop" xmlns="http://www.w3.org/2000/svg" xmlns:xlink="http://www.w3.org/1999/xlink" x="0px"
	 y="0px" width="30px" height="20px" viewBox="0 0 30 20" enable-background="new 0 0 30 20" xml:space="preserve">
    	<style>.piecehighlight { fill: #fff; } .piecedarkness { fill: #666666; }</style>
   <path class="piecehighlight" d="M16.999,2.683l-0.443,0.256c-1.924,1.115-3.781,2.594-5.518,4.392c-1.502,1.556-2.833,3.265-3.968,5.086
	c-0.732-1.69-1.44-2.483-2.243-2.496c-0.534,0-1.108,0.28-1.754,0.854l-0.84,0.747l1.116,0.128c0.25,0.029,0.504,0.23,0.755,0.602
	c0.318,0.467,0.716,1.318,1.188,2.527l0.224,0.577c0.243,0.635,0.326,0.94,0.351,1.086l0.156,0.877l0.67-0.587
	c0.257-0.227,0.574-0.456,0.94-0.688l0.588-0.378l0.059-0.154c0.754-1.977,1.984-4.021,3.656-6.081
	c1.674-2.062,3.508-3.784,5.451-5.116l0.379-0.259L16.999,2.683z"/>
</svg>
